<svg width="20" height="18" viewBox="0 0 20 18" fill="none" xmlns="http://www.w3.org/2000/svg">
	<path d="M15.555 3.03003L14.425 1.33594C13.867 0.498937 12.934 0 11.929 0H8.07001C7.06501 0 6.13201 0.498937 5.57401 1.33594L4.444 3.03003C1.947 3.30703 0 5.43 0 8V13C0 15.757 2.243 18 5 18H15C17.757 18 20 15.757 20 13V8C19.999 5.431 18.051 3.30803 15.555 3.03003ZM17.999 13C17.999 14.654 16.653 16 14.999 16H4.99899C3.34499 16 1.99899 14.654 1.99899 13V8C1.99899 6.346 3.34499 5 4.99899 5C5.33299 5 5.64499 4.83293 5.83099 4.55493L7.237 2.44604C7.423 2.16704 7.734 2.00098 8.069 2.00098H11.928C12.263 2.00098 12.574 2.16704 12.76 2.44604L14.166 4.55493C14.352 4.83293 14.664 5 14.998 5C16.652 5 17.998 6.346 17.998 8V13H17.999ZM9.99899 6C7.79299 6 5.99899 7.794 5.99899 10C5.99899 12.206 7.79299 14 9.99899 14C12.205 14 13.999 12.206 13.999 10C13.999 7.794 12.205 6 9.99899 6ZM9.99899 12C8.89599 12 7.99899 11.103 7.99899 10C7.99899 8.897 8.89599 8 9.99899 8C11.102 8 11.999 8.897 11.999 10C11.999 11.103 11.102 12 9.99899 12ZM16.999 7C16.999 7.552 16.551 8 15.999 8C15.447 8 14.999 7.552 14.999 7C14.999 6.448 15.447 6 15.999 6C16.551 6 16.999 6.448 16.999 7Z" fill="white">
	</path>
</svg>
